<svg width="45" height="45" viewBox="0 0 45 45" fill="none" xmlns="http://www.w3.org/2000/svg">
<g id="sentiment_very_satisfied_24px">
<path id="icon/social/sentiment_very_satisfied_24px" fill-rule="evenodd" clip-rule="evenodd" d="M22.4812 3.75C12.1312 3.75 3.75 12.1312 3.75 22.5C3.75 32.8687 12.1312 41.25 22.4812 41.25C32.8312 41.25 41.25 32.8687 41.25 22.5C41.25 12.1312 32.85 3.75 22.4812 3.75ZM22.5 37.5C14.2125 37.5 7.5 30.7875 7.5 22.5C7.5 14.2125 14.2125 7.5 22.5 7.5C30.7875 7.5 37.5 14.2125 37.5 22.5C37.5 30.7875 30.7875 37.5 22.5 37.5ZM26.3625 20.625L24.375 18.6375L28.35 14.6625L32.325 18.6375L30.3375 20.625L28.35 18.6375L26.3625 20.625ZM16.65 18.6375L18.6375 20.625L20.625 18.6375L16.65 14.6625L12.675 18.6375L14.6625 20.625L16.65 18.6375ZM32.0813 26.25C30.5813 30.075 26.8688 32.8125 22.5 32.8125C18.1313 32.8125 14.4188 30.075 12.9188 26.25H32.0813Z" fill="#3D619B"/>
</g>
</svg>
