<svg width="50" height="50" viewBox="0 0 50 50" fill="none" xmlns="http://www.w3.org/2000/svg">
<g id="sentiment_very_dissatisfied_24px">
<path id="icon/social/sentiment_very_dissatisfied_24px" fill-rule="evenodd" clip-rule="evenodd" d="M4.16667 25C4.16667 13.4792 13.4792 4.16666 24.9792 4.16666C36.5 4.16666 45.8333 13.4792 45.8333 25C45.8333 36.5208 36.4792 45.8333 24.9792 45.8333C13.4792 45.8333 4.16667 36.5208 4.16667 25ZM16.2917 25L18.5 22.7917L20.7083 25L22.9167 22.7917L20.7083 20.5833L22.9167 18.375L20.7083 16.1667L18.5 18.375L16.2917 16.1667L14.0833 18.375L16.2917 20.5833L14.0833 22.7917L16.2917 25ZM25 28.125C20.1458 28.125 16.0208 31.1667 14.3542 35.4167H35.6458C33.9792 31.1667 29.8542 28.125 25 28.125ZM25 41.6667C15.7917 41.6667 8.33334 34.2083 8.33334 25C8.33334 15.7917 15.7917 8.33333 25 8.33333C34.2083 8.33333 41.6667 15.7917 41.6667 25C41.6667 34.2083 34.2083 41.6667 25 41.6667ZM31.5 18.375L33.7083 16.1667L35.9167 18.375L33.7083 20.5833L35.9167 22.7917L33.7083 25L31.5 22.7917L29.2917 25L27.0833 22.7917L29.2917 20.5833L27.0833 18.375L29.2917 16.1667L31.5 18.375Z" fill="#3D619B"/>
</g>
</svg>
