<svg width="50" height="50" viewBox="0 0 50 50" fill="none" xmlns="http://www.w3.org/2000/svg">
<g id="sentiment_satisfied_24px">
<path id="icon/social/sentiment_satisfied_24px" fill-rule="evenodd" clip-rule="evenodd" d="M24.9792 4.16666C13.4792 4.16666 4.16666 13.5 4.16666 25C4.16666 36.5 13.4792 45.8333 24.9792 45.8333C36.5 45.8333 45.8333 36.5 45.8333 25C45.8333 13.5 36.5 4.16666 24.9792 4.16666ZM17.7083 16.6667C15.9824 16.6667 14.5833 18.0658 14.5833 19.7917C14.5833 21.5175 15.9824 22.9167 17.7083 22.9167C19.4342 22.9167 20.8333 21.5175 20.8333 19.7917C20.8333 18.0658 19.4342 16.6667 17.7083 16.6667ZM32.2917 16.6667C30.5658 16.6667 29.1667 18.0658 29.1667 19.7917C29.1667 21.5175 30.5658 22.9167 32.2917 22.9167C34.0175 22.9167 35.4167 21.5175 35.4167 19.7917C35.4167 18.0658 34.0175 16.6667 32.2917 16.6667ZM17.8125 29.1667C19.2708 31.6458 21.9167 33.3333 25 33.3333C28.0833 33.3333 30.7292 31.6458 32.1875 29.1667H35.6667C34 33.4375 29.8542 36.4583 25 36.4583C20.1458 36.4583 16 33.4375 14.3333 29.1667H17.8125ZM8.33332 25C8.33332 34.2083 15.7917 41.6667 25 41.6667C34.2083 41.6667 41.6667 34.2083 41.6667 25C41.6667 15.7917 34.2083 8.33332 25 8.33332C15.7917 8.33332 8.33332 15.7917 8.33332 25Z" fill="#3D619B"/>
</g>
</svg>
